<mxfile host="app.diagrams.net" modified="2025-01-19T19:35:23.094Z" agent="Mozilla/5.0 (Windows NT 10.0; Win64; x64) AppleWebKit/537.36 (KHTML, like Gecko) Chrome/130.0.0.0 Safari/537.36" etag="7AVGps1rkYIKg6qr5rOD" version="24.0.4" type="device">
  <diagram name="Страница — 1" id="VB0pvGMLevGuD9oIXtR4">
    <mxGraphModel dx="2440" dy="1292" grid="1" gridSize="10" guides="1" tooltips="1" connect="1" arrows="1" fold="1" page="1" pageScale="1" pageWidth="827" pageHeight="1169" background="#FFFFFF" math="0" shadow="0">
      <root>
        <mxCell id="0" />
        <mxCell id="1" parent="0" />
        <mxCell id="5P3_nKetf4t77R6bfygs-3" style="edgeStyle=orthogonalEdgeStyle;rounded=0;orthogonalLoop=1;jettySize=auto;html=1;entryX=0.25;entryY=0;entryDx=0;entryDy=0;exitX=0.25;exitY=1;exitDx=0;exitDy=0;" edge="1" parent="1" source="5P3_nKetf4t77R6bfygs-1" target="5P3_nKetf4t77R6bfygs-2">
          <mxGeometry relative="1" as="geometry">
            <mxPoint x="179" y="390" as="sourcePoint" />
            <Array as="points">
              <mxPoint x="159" y="372" />
              <mxPoint x="159" y="372" />
            </Array>
          </mxGeometry>
        </mxCell>
        <mxCell id="5P3_nKetf4t77R6bfygs-4" value="запрос на расходники" style="edgeLabel;html=1;align=center;verticalAlign=middle;resizable=0;points=[];" vertex="1" connectable="0" parent="5P3_nKetf4t77R6bfygs-3">
          <mxGeometry x="-0.0444" y="1" relative="1" as="geometry">
            <mxPoint y="-13" as="offset" />
          </mxGeometry>
        </mxCell>
        <mxCell id="5P3_nKetf4t77R6bfygs-16" style="edgeStyle=orthogonalEdgeStyle;rounded=0;orthogonalLoop=1;jettySize=auto;html=1;exitX=0.5;exitY=0;exitDx=0;exitDy=0;entryX=0.5;entryY=1;entryDx=0;entryDy=0;" edge="1" parent="1" source="5P3_nKetf4t77R6bfygs-1" target="5P3_nKetf4t77R6bfygs-7">
          <mxGeometry relative="1" as="geometry" />
        </mxCell>
        <mxCell id="5P3_nKetf4t77R6bfygs-18" value="ищет воркеров" style="edgeLabel;html=1;align=center;verticalAlign=middle;resizable=0;points=[];" vertex="1" connectable="0" parent="5P3_nKetf4t77R6bfygs-16">
          <mxGeometry x="0.1759" y="5" relative="1" as="geometry">
            <mxPoint as="offset" />
          </mxGeometry>
        </mxCell>
        <mxCell id="5P3_nKetf4t77R6bfygs-39" style="edgeStyle=orthogonalEdgeStyle;rounded=0;orthogonalLoop=1;jettySize=auto;html=1;exitX=0;exitY=0.5;exitDx=0;exitDy=0;entryX=0;entryY=0.5;entryDx=0;entryDy=0;" edge="1" parent="1" source="5P3_nKetf4t77R6bfygs-1" target="5P3_nKetf4t77R6bfygs-8">
          <mxGeometry relative="1" as="geometry">
            <mxPoint x="289" y="820" as="targetPoint" />
            <Array as="points">
              <mxPoint x="49" y="320" />
              <mxPoint x="49" y="740" />
            </Array>
          </mxGeometry>
        </mxCell>
        <mxCell id="5P3_nKetf4t77R6bfygs-47" style="edgeStyle=orthogonalEdgeStyle;rounded=0;orthogonalLoop=1;jettySize=auto;html=1;exitX=0;exitY=0.25;exitDx=0;exitDy=0;strokeColor=#B266FF;" edge="1" parent="1" source="5P3_nKetf4t77R6bfygs-1" target="5P3_nKetf4t77R6bfygs-46">
          <mxGeometry relative="1" as="geometry" />
        </mxCell>
        <mxCell id="5P3_nKetf4t77R6bfygs-1" value="1. Заявки" style="rounded=0;whiteSpace=wrap;html=1;" vertex="1" parent="1">
          <mxGeometry x="119" y="270" width="160" height="100" as="geometry" />
        </mxCell>
        <mxCell id="5P3_nKetf4t77R6bfygs-5" style="edgeStyle=orthogonalEdgeStyle;rounded=0;orthogonalLoop=1;jettySize=auto;html=1;exitX=0.75;exitY=0;exitDx=0;exitDy=0;entryX=0.75;entryY=1;entryDx=0;entryDy=0;" edge="1" parent="1" source="5P3_nKetf4t77R6bfygs-2" target="5P3_nKetf4t77R6bfygs-1">
          <mxGeometry relative="1" as="geometry" />
        </mxCell>
        <mxCell id="5P3_nKetf4t77R6bfygs-6" value="отправка расходников" style="edgeLabel;html=1;align=center;verticalAlign=middle;resizable=0;points=[];" vertex="1" connectable="0" parent="5P3_nKetf4t77R6bfygs-5">
          <mxGeometry x="-0.0741" y="2" relative="1" as="geometry">
            <mxPoint y="12" as="offset" />
          </mxGeometry>
        </mxCell>
        <mxCell id="5P3_nKetf4t77R6bfygs-30" style="edgeStyle=orthogonalEdgeStyle;rounded=0;orthogonalLoop=1;jettySize=auto;html=1;" edge="1" parent="1" source="5P3_nKetf4t77R6bfygs-2" target="5P3_nKetf4t77R6bfygs-29">
          <mxGeometry relative="1" as="geometry" />
        </mxCell>
        <mxCell id="5P3_nKetf4t77R6bfygs-2" value="2. Расходники" style="rounded=0;whiteSpace=wrap;html=1;" vertex="1" parent="1">
          <mxGeometry x="119" y="460" width="160" height="100" as="geometry" />
        </mxCell>
        <mxCell id="5P3_nKetf4t77R6bfygs-38" style="edgeStyle=orthogonalEdgeStyle;rounded=0;orthogonalLoop=1;jettySize=auto;html=1;exitX=0;exitY=0.5;exitDx=0;exitDy=0;entryX=0;entryY=0.5;entryDx=0;entryDy=0;" edge="1" parent="1" source="5P3_nKetf4t77R6bfygs-7" target="5P3_nKetf4t77R6bfygs-8">
          <mxGeometry relative="1" as="geometry">
            <Array as="points">
              <mxPoint x="49" y="150" />
              <mxPoint x="49" y="740" />
            </Array>
          </mxGeometry>
        </mxCell>
        <mxCell id="5P3_nKetf4t77R6bfygs-7" value="3. Менеджмент персонала" style="rounded=0;whiteSpace=wrap;html=1;" vertex="1" parent="1">
          <mxGeometry x="119" y="100" width="160" height="100" as="geometry" />
        </mxCell>
        <mxCell id="5P3_nKetf4t77R6bfygs-8" value="4. Авторизация" style="rounded=0;whiteSpace=wrap;html=1;" vertex="1" parent="1">
          <mxGeometry x="289" y="690" width="160" height="100" as="geometry" />
        </mxCell>
        <mxCell id="5P3_nKetf4t77R6bfygs-28" style="edgeStyle=orthogonalEdgeStyle;rounded=0;orthogonalLoop=1;jettySize=auto;html=1;exitX=0;exitY=0.25;exitDx=0;exitDy=0;entryX=0.5;entryY=0;entryDx=0;entryDy=0;strokeColor=#004C99;" edge="1" parent="1" source="5P3_nKetf4t77R6bfygs-9" target="5P3_nKetf4t77R6bfygs-7">
          <mxGeometry relative="1" as="geometry">
            <Array as="points">
              <mxPoint x="589" y="475" />
              <mxPoint x="589" y="80" />
              <mxPoint x="199" y="80" />
            </Array>
          </mxGeometry>
        </mxCell>
        <mxCell id="5P3_nKetf4t77R6bfygs-43" style="edgeStyle=orthogonalEdgeStyle;rounded=0;orthogonalLoop=1;jettySize=auto;html=1;exitX=1;exitY=0.5;exitDx=0;exitDy=0;entryX=1;entryY=0.5;entryDx=0;entryDy=0;" edge="1" parent="1" source="5P3_nKetf4t77R6bfygs-9" target="5P3_nKetf4t77R6bfygs-8">
          <mxGeometry relative="1" as="geometry" />
        </mxCell>
        <mxCell id="5P3_nKetf4t77R6bfygs-53" style="edgeStyle=orthogonalEdgeStyle;rounded=0;orthogonalLoop=1;jettySize=auto;html=1;exitX=0.25;exitY=0;exitDx=0;exitDy=0;entryX=1;entryY=0.25;entryDx=0;entryDy=0;strokeColor=#FF99CC;" edge="1" parent="1" source="5P3_nKetf4t77R6bfygs-9" target="5P3_nKetf4t77R6bfygs-7">
          <mxGeometry relative="1" as="geometry">
            <Array as="points">
              <mxPoint x="679" y="410" />
              <mxPoint x="490" y="410" />
              <mxPoint x="490" y="125" />
            </Array>
          </mxGeometry>
        </mxCell>
        <mxCell id="5P3_nKetf4t77R6bfygs-9" value="5. Бухгалтерия" style="rounded=0;whiteSpace=wrap;html=1;" vertex="1" parent="1">
          <mxGeometry x="639" y="450" width="160" height="100" as="geometry" />
        </mxCell>
        <mxCell id="5P3_nKetf4t77R6bfygs-42" style="edgeStyle=orthogonalEdgeStyle;rounded=0;orthogonalLoop=1;jettySize=auto;html=1;exitX=1;exitY=0.5;exitDx=0;exitDy=0;entryX=1;entryY=0.5;entryDx=0;entryDy=0;" edge="1" parent="1" source="5P3_nKetf4t77R6bfygs-10" target="5P3_nKetf4t77R6bfygs-8">
          <mxGeometry relative="1" as="geometry" />
        </mxCell>
        <mxCell id="5P3_nKetf4t77R6bfygs-10" value="6. Контроль качества" style="rounded=0;whiteSpace=wrap;html=1;" vertex="1" parent="1">
          <mxGeometry x="639" y="280" width="160" height="100" as="geometry" />
        </mxCell>
        <mxCell id="5P3_nKetf4t77R6bfygs-41" style="edgeStyle=orthogonalEdgeStyle;rounded=0;orthogonalLoop=1;jettySize=auto;html=1;exitX=1;exitY=0.5;exitDx=0;exitDy=0;entryX=1;entryY=0.5;entryDx=0;entryDy=0;" edge="1" parent="1" source="5P3_nKetf4t77R6bfygs-13" target="5P3_nKetf4t77R6bfygs-8">
          <mxGeometry relative="1" as="geometry" />
        </mxCell>
        <mxCell id="5P3_nKetf4t77R6bfygs-13" value="7. Ставки" style="rounded=0;whiteSpace=wrap;html=1;" vertex="1" parent="1">
          <mxGeometry x="639" y="100" width="160" height="100" as="geometry" />
        </mxCell>
        <mxCell id="5P3_nKetf4t77R6bfygs-20" value="БД для транзакций" style="shape=cylinder3;whiteSpace=wrap;html=1;boundedLbl=1;backgroundOutline=1;size=15;" vertex="1" parent="1">
          <mxGeometry x="710" y="530" width="90" height="60" as="geometry" />
        </mxCell>
        <mxCell id="5P3_nKetf4t77R6bfygs-21" value="очередь&lt;div&gt;&amp;nbsp;для событий&lt;/div&gt;" style="strokeWidth=2;html=1;shape=mxgraph.flowchart.direct_data;whiteSpace=wrap;" vertex="1" parent="1">
          <mxGeometry x="339" y="190" width="120" height="70" as="geometry" />
        </mxCell>
        <mxCell id="5P3_nKetf4t77R6bfygs-22" style="edgeStyle=orthogonalEdgeStyle;rounded=0;orthogonalLoop=1;jettySize=auto;html=1;entryX=0;entryY=0.5;entryDx=0;entryDy=0;entryPerimeter=0;" edge="1" parent="1" source="5P3_nKetf4t77R6bfygs-1" target="5P3_nKetf4t77R6bfygs-21">
          <mxGeometry relative="1" as="geometry" />
        </mxCell>
        <mxCell id="5P3_nKetf4t77R6bfygs-23" style="edgeStyle=orthogonalEdgeStyle;rounded=0;orthogonalLoop=1;jettySize=auto;html=1;entryX=1;entryY=0.5;entryDx=0;entryDy=0;entryPerimeter=0;" edge="1" parent="1" source="5P3_nKetf4t77R6bfygs-13" target="5P3_nKetf4t77R6bfygs-21">
          <mxGeometry relative="1" as="geometry">
            <mxPoint x="569" y="235" as="targetPoint" />
            <Array as="points">
              <mxPoint x="609" y="160" />
              <mxPoint x="609" y="225" />
            </Array>
          </mxGeometry>
        </mxCell>
        <mxCell id="5P3_nKetf4t77R6bfygs-24" style="edgeStyle=orthogonalEdgeStyle;rounded=0;orthogonalLoop=1;jettySize=auto;html=1;entryX=1;entryY=0.5;entryDx=0;entryDy=0;entryPerimeter=0;" edge="1" parent="1" source="5P3_nKetf4t77R6bfygs-10" target="5P3_nKetf4t77R6bfygs-21">
          <mxGeometry relative="1" as="geometry">
            <mxPoint x="569" y="235" as="targetPoint" />
            <Array as="points">
              <mxPoint x="609" y="330" />
              <mxPoint x="609" y="225" />
            </Array>
          </mxGeometry>
        </mxCell>
        <mxCell id="5P3_nKetf4t77R6bfygs-26" value="подписка&amp;nbsp;&lt;div&gt;на изменение статуса&lt;/div&gt;" style="edgeLabel;html=1;align=center;verticalAlign=middle;resizable=0;points=[];labelBackgroundColor=none;" vertex="1" connectable="0" parent="5P3_nKetf4t77R6bfygs-24">
          <mxGeometry x="0.6561" y="-3" relative="1" as="geometry">
            <mxPoint x="22" y="3" as="offset" />
          </mxGeometry>
        </mxCell>
        <mxCell id="5P3_nKetf4t77R6bfygs-27" style="edgeStyle=orthogonalEdgeStyle;rounded=0;orthogonalLoop=1;jettySize=auto;html=1;entryX=1;entryY=0.5;entryDx=0;entryDy=0;entryPerimeter=0;" edge="1" parent="1" source="5P3_nKetf4t77R6bfygs-9" target="5P3_nKetf4t77R6bfygs-21">
          <mxGeometry relative="1" as="geometry">
            <Array as="points">
              <mxPoint x="609" y="500" />
              <mxPoint x="609" y="225" />
            </Array>
          </mxGeometry>
        </mxCell>
        <mxCell id="5P3_nKetf4t77R6bfygs-29" value="внешняя система для печенек" style="ellipse;whiteSpace=wrap;html=1;fillColor=#ffe6cc;strokeColor=#d79b00;" vertex="1" parent="1">
          <mxGeometry x="359" y="470" width="120" height="80" as="geometry" />
        </mxCell>
        <mxCell id="5P3_nKetf4t77R6bfygs-37" style="edgeStyle=orthogonalEdgeStyle;rounded=0;orthogonalLoop=1;jettySize=auto;html=1;exitX=1;exitY=0.5;exitDx=0;exitDy=0;exitPerimeter=0;" edge="1" parent="1" source="5P3_nKetf4t77R6bfygs-31" target="5P3_nKetf4t77R6bfygs-36">
          <mxGeometry relative="1" as="geometry" />
        </mxCell>
        <mxCell id="5P3_nKetf4t77R6bfygs-31" value="очередь&lt;div&gt;&amp;nbsp;для нотификаций&lt;/div&gt;" style="strokeWidth=2;html=1;shape=mxgraph.flowchart.direct_data;whiteSpace=wrap;" vertex="1" parent="1">
          <mxGeometry x="359" y="600" width="120" height="70" as="geometry" />
        </mxCell>
        <mxCell id="5P3_nKetf4t77R6bfygs-32" style="edgeStyle=orthogonalEdgeStyle;rounded=0;orthogonalLoop=1;jettySize=auto;html=1;exitX=0.5;exitY=1;exitDx=0;exitDy=0;entryX=0;entryY=0.5;entryDx=0;entryDy=0;entryPerimeter=0;strokeColor=#009999;" edge="1" parent="1" source="5P3_nKetf4t77R6bfygs-2" target="5P3_nKetf4t77R6bfygs-31">
          <mxGeometry relative="1" as="geometry" />
        </mxCell>
        <mxCell id="5P3_nKetf4t77R6bfygs-33" style="edgeStyle=orthogonalEdgeStyle;rounded=0;orthogonalLoop=1;jettySize=auto;html=1;exitX=1;exitY=0.75;exitDx=0;exitDy=0;entryX=0;entryY=0.5;entryDx=0;entryDy=0;entryPerimeter=0;strokeColor=#009999;" edge="1" parent="1" source="5P3_nKetf4t77R6bfygs-1" target="5P3_nKetf4t77R6bfygs-31">
          <mxGeometry relative="1" as="geometry" />
        </mxCell>
        <mxCell id="5P3_nKetf4t77R6bfygs-34" style="edgeStyle=orthogonalEdgeStyle;rounded=0;orthogonalLoop=1;jettySize=auto;html=1;exitX=0;exitY=0.75;exitDx=0;exitDy=0;entryX=0;entryY=0.5;entryDx=0;entryDy=0;entryPerimeter=0;strokeColor=#009999;" edge="1" parent="1" source="5P3_nKetf4t77R6bfygs-10" target="5P3_nKetf4t77R6bfygs-31">
          <mxGeometry relative="1" as="geometry">
            <Array as="points">
              <mxPoint x="319" y="355" />
              <mxPoint x="319" y="635" />
            </Array>
          </mxGeometry>
        </mxCell>
        <mxCell id="5P3_nKetf4t77R6bfygs-35" style="edgeStyle=orthogonalEdgeStyle;rounded=0;orthogonalLoop=1;jettySize=auto;html=1;exitX=0;exitY=0.75;exitDx=0;exitDy=0;entryX=0;entryY=0.5;entryDx=0;entryDy=0;entryPerimeter=0;strokeColor=#009999;" edge="1" parent="1" source="5P3_nKetf4t77R6bfygs-9" target="5P3_nKetf4t77R6bfygs-31">
          <mxGeometry relative="1" as="geometry">
            <Array as="points">
              <mxPoint x="549" y="525" />
              <mxPoint x="549" y="570" />
              <mxPoint x="319" y="570" />
              <mxPoint x="319" y="635" />
            </Array>
          </mxGeometry>
        </mxCell>
        <mxCell id="5P3_nKetf4t77R6bfygs-36" value="внешняя система отправки писем" style="ellipse;whiteSpace=wrap;html=1;fillColor=#ffe6cc;strokeColor=#d79b00;" vertex="1" parent="1">
          <mxGeometry x="579" y="595" width="120" height="80" as="geometry" />
        </mxCell>
        <mxCell id="5P3_nKetf4t77R6bfygs-40" style="edgeStyle=orthogonalEdgeStyle;rounded=0;orthogonalLoop=1;jettySize=auto;html=1;exitX=0;exitY=0.5;exitDx=0;exitDy=0;entryX=0;entryY=0.5;entryDx=0;entryDy=0;" edge="1" parent="1" source="5P3_nKetf4t77R6bfygs-2" target="5P3_nKetf4t77R6bfygs-8">
          <mxGeometry relative="1" as="geometry">
            <mxPoint x="279" y="810" as="targetPoint" />
            <Array as="points">
              <mxPoint x="49" y="510" />
              <mxPoint x="49" y="740" />
            </Array>
          </mxGeometry>
        </mxCell>
        <mxCell id="5P3_nKetf4t77R6bfygs-45" value="БД" style="shape=cylinder3;whiteSpace=wrap;html=1;boundedLbl=1;backgroundOutline=1;size=15;" vertex="1" parent="1">
          <mxGeometry x="730" y="170" width="61" height="60" as="geometry" />
        </mxCell>
        <mxCell id="5P3_nKetf4t77R6bfygs-46" value="БД" style="shape=cylinder3;whiteSpace=wrap;html=1;boundedLbl=1;backgroundOutline=1;size=15;fillColor=#e1d5e7;strokeColor=#9673a6;" vertex="1" parent="1">
          <mxGeometry x="30" y="20" width="61" height="60" as="geometry" />
        </mxCell>
        <mxCell id="5P3_nKetf4t77R6bfygs-48" style="edgeStyle=orthogonalEdgeStyle;rounded=0;orthogonalLoop=1;jettySize=auto;html=1;exitX=0.25;exitY=0;exitDx=0;exitDy=0;entryX=1;entryY=0.5;entryDx=0;entryDy=0;entryPerimeter=0;strokeColor=#B266FF;" edge="1" parent="1" source="5P3_nKetf4t77R6bfygs-7" target="5P3_nKetf4t77R6bfygs-46">
          <mxGeometry relative="1" as="geometry" />
        </mxCell>
        <mxCell id="5P3_nKetf4t77R6bfygs-49" value="БД кандидатов" style="shape=cylinder3;whiteSpace=wrap;html=1;boundedLbl=1;backgroundOutline=1;size=15;" vertex="1" parent="1">
          <mxGeometry x="228" y="160" width="82" height="60" as="geometry" />
        </mxCell>
        <mxCell id="5P3_nKetf4t77R6bfygs-50" value="БД с аудитом" style="shape=cylinder3;whiteSpace=wrap;html=1;boundedLbl=1;backgroundOutline=1;size=15;" vertex="1" parent="1">
          <mxGeometry x="220" y="535" width="82" height="60" as="geometry" />
        </mxCell>
        <mxCell id="5P3_nKetf4t77R6bfygs-51" style="edgeStyle=orthogonalEdgeStyle;rounded=0;orthogonalLoop=1;jettySize=auto;html=1;exitX=0;exitY=0.25;exitDx=0;exitDy=0;entryX=1;entryY=0.5;entryDx=0;entryDy=0;entryPerimeter=0;strokeColor=#B266FF;" edge="1" parent="1" source="5P3_nKetf4t77R6bfygs-10" target="5P3_nKetf4t77R6bfygs-46">
          <mxGeometry relative="1" as="geometry">
            <Array as="points">
              <mxPoint x="620" y="305" />
              <mxPoint x="620" y="50" />
            </Array>
          </mxGeometry>
        </mxCell>
        <mxCell id="5P3_nKetf4t77R6bfygs-54" value="scheduler для списания и зачисления деняк" style="ellipse;whiteSpace=wrap;html=1;fillColor=#ffe6cc;strokeColor=#d79b00;" vertex="1" parent="1">
          <mxGeometry x="699" y="400" width="120" height="80" as="geometry" />
        </mxCell>
      </root>
    </mxGraphModel>
  </diagram>
</mxfile>
